<svg width="20" height="19" viewBox="0 0 20 19" fill="none" xmlns="http://www.w3.org/2000/svg">
    <path fill-rule="evenodd" clip-rule="evenodd" d="M18.5666 8.40153H11.0987V0.93345C11.0987 0.41827 10.6804 0 10.1651 0C9.64988 0 9.23161 0.41826 9.23161 0.93345V8.40153H1.76353C1.24835 8.40153 0.830078 8.81979 0.830078 9.33498C0.830078 9.85033 1.24834 10.2686 1.76353 10.2686H9.23161V17.7365C9.23161 18.2519 9.64987 18.6701 10.1651 18.6701C10.6804 18.6701 11.0987 18.2519 11.0987 17.7365V10.2686H18.5666C19.0819 10.2686 19.5002 9.85034 19.5002 9.33498C19.5002 8.8198 19.0819 8.40153 18.5666 8.40153Z" fill="#171930"/>
</svg>